<svg xmlns="http://www.w3.org/2000/svg" xmlns:xlink="http://www.w3.org/1999/xlink" viewBox="0 0 841.9 595.3" aria-hidden="true"><g fill="none" stroke="#61DAFB" stroke-width="25"><path d="M666.3 296.5c0 70.7-57.2 127.9-127.9 127.9-70.7 0-127.9-57.2-127.9-127.9 0-70.7 57.2-127.9 127.9-127.9 70.7 0 127.9 57.2 127.9 127.9z"/><path d="M666.3 296.5c0 70.7-57.2 127.9-127.9 127.9-70.7 0-127.9-57.2-127.9-127.9 0-70.7 57.2-127.9 127.9-127.9 70.7 0 127.9 57.2 127.9 127.9z" stroke="#61DAFB" stroke-width="25"/><path d="M520.5 78.1c60.1 34.7 80.8 111.6 46.1 171.7-34.7 60.1-111.6 80.8-171.7 46.1-60.1-34.7-80.8-111.6-46.1-171.7 34.7-60.1 111.6-80.8 171.7-46.1z"/><path d="M520.5 78.1c60.1 34.7 80.8 111.6 46.1 171.7-34.7 60.1-111.6 80.8-171.7 46.1-60.1-34.7-80.8-111.6-46.1-171.7 34.7-60.1 111.6-80.8 171.7-46.1z" stroke="#61DAFB" stroke-width="25"/><path d="M395.4 78.1c-60.1 34.7-80.8 111.6-46.1 171.7 34.7 60.1 111.6 80.8 171.7 46.1 60.1-34.7 80.8-111.6 46.1-171.7-34.7-60.1-111.6-80.8-171.7-46.1z"/><path d="M395.4 78.1c-60.1 34.7-80.8 111.6-46.1 171.7 34.7 60.1 111.6 80.8 171.7 46.1 60.1-34.7 80.8-111.6 46.1-171.7-34.7-60.1-111.6-80.8-171.7-46.1z" stroke="#61DAFB" stroke-width="25"/></g><circle fill="#61DAFB" cx="420.9" cy="296.5" r="45.7"/></svg>

