<svg xmlns="http://www.w3.org/2000/svg" xmlns:xlink="http://www.w3.org/1999/xlink" aria-hidden="true" role="img" class="iconify iconify--logos" width="31.88" height="32" preserveAspectRatio="xMidYMid meet" viewBox="0 0 256 257"><defs><linearGradient id="IconifyId1813088fe1fbc01fb466" x1="-.828%" x2="57.636%" y1="7.652%" y2="78.411%"><stop offset="0%" stop-color="#41D1FF"></stop><stop offset="100%" stop-color="#BD34FE"></stop></linearGradient><linearGradient id="IconifyId1813088fe1fbc01fb467" x1="43.376%" x2="50.316%" y1="2.242%" y2="89.03%"><stop offset="0%" stop-color="#FFEA83"></stop><stop offset="8.333%" stop-color="#FFDD35"></stop><stop offset="100%" stop-color="#FFA800"></stop></linearGradient></defs><path fill="url(#IconifyId1813088fe1fbc01fb466)" d="M255.153 37.938L134.897 252.976c-2.501 4.48-8.962 4.506-11.5.05L.845 37.938c-2.764-4.846 1.017-10.791 6.57-10.34l120.54 9.812a7.12 7.12 0 0 0 1.15 0l120.478-9.812c5.553-.45 9.334 5.494 6.57 10.34Z"></path><path fill="url(#IconifyId1813088fe1fbc01fb467)" d="M185.432.063L96.438 17.494a3.56 3.56 0 0 0-2.904 3.906l15.269 128.736a3.56 3.56 0 0 0 4.12 3.08l24.614-4.66a3.56 3.56 0 0 0 2.87-3.47l.114-31.826a3.56 3.56 0 0 1 2.61-3.425l29.295-8.84a3.56 3.56 0 0 0 2.52-2.882l5.827-40.445a3.56 3.56 0 0 0-4.328-3.98l-25.547 6.1a3.56 3.56 0 0 1-4.338-4.248l3.823-16.23a3.56 3.56 0 0 1 2.684-2.61l32.418-7.748a3.56 3.56 0 0 0 2.767-3.448V3.55a3.56 3.56 0 0 0-4.269-3.487Z"></path></svg>

